<?xml version="1.0" standalone="no"?>
<!DOCTYPE svg PUBLIC "-//W3C//DTD SVG 20010904//EN"
 "http://www.w3.org/TR/2001/REC-SVG-20010904/DTD/svg10.dtd">
<svg version="1.0" xmlns="http://www.w3.org/2000/svg"
 width="16.000000pt" height="16.000000pt" viewBox="0 0 16.000000 16.000000"
 preserveAspectRatio="xMidYMid meet">
<metadata>
Created by potrace 1.11, written by Peter Selinger 2001-2013
</metadata>
<g transform="translate(0.000000,16.000000) scale(0.006250,-0.006250)"
fill="#000000" stroke="none">
<path d="M1116 2549 c-294 -40 -550 -171 -757 -386 -174 -181 -282 -388 -336
-643 -24 -117 -24 -363 0 -480 111 -523 490 -906 1007 -1017 119 -25 381 -25
500 0 511 109 898 496 1007 1007 25 119 25 381 0 500 -110 515 -496 899 -1012
1005 -96 20 -314 28 -409 14z m422 -546 c-3 -46 -5 -49 -43 -61 -22 -7 -43
-18 -47 -25 -4 -7 -8 -96 -8 -200 l0 -187 231 -423 c252 -459 263 -485 219
-539 -43 -55 -75 -58 -610 -58 -406 0 -495 3 -538 15 -93 28 -115 93 -65 192
l26 53 109 0 c101 0 108 1 108 20 0 19 -7 20 -96 20 -53 0 -94 3 -92 8 2 4 16
31 31 60 l27 52 105 0 c98 0 105 1 105 20 0 19 -7 20 -90 20 -49 0 -90 3 -90
6 0 3 15 32 33 65 l32 59 103 0 c95 0 102 1 102 20 0 19 -7 20 -90 20 l-90 0
27 55 27 55 108 0 c101 0 108 1 108 20 0 18 -8 20 -94 22 l-95 3 64 115 64
115 0 190 c1 105 -3 195 -7 202 -4 7 -25 18 -47 25 -38 12 -40 16 -45 61 l-6
47 264 0 263 0 -3 -47z"/>
</g>
</svg>
